<svg xmlns="http://www.w3.org/2000/svg" width="109" height="20" viewBox="0 0 109 20">
    <path fill="#ED5E42" fill-rule="nonzero" d="M103.018 4.654c-1.61 0-3.68.232-3.94.232v14.482h3.193v-4.943c.465.078.937.116 1.409.116 2.932 0 5.175-1.948 5.175-4.914 0-3.373-2.472-4.973-5.837-4.973zm.288 7.183a2.863 2.863 0 0 1-1.035-.168V7.563c.166-.029.719-.029 1.035-.029 1.409 0 2.358.698 2.358 2.152 0 1.396-.977 2.151-2.358 2.151zm-10.867 2.449h3.077v-2.799H92.44V7.731h3.739V4.827h-6.874v14.541h7.101v-2.907H92.44v-2.175zm-11.616-2.333V4.827h-3.134v14.541h3.134v-4.706h.575l3.68 4.706h1.33v-3.373c-.634-.872-1.468-1.978-2.043-2.792a99.916 99.916 0 0 0 1.207-3.81l1.35-4.566H83.64l-2.127 7.124-.69.002zM43.533 15.5c-1.15 0-3.019-1.076-3.019-3.404 0-2.327 1.866-3.401 3.02-3.401V15.5zM32.375 0l-3.851 2.239V3.46h5.003V0h-1.152zM32 15.269v4.1h3.157V4.828H32v5.882l-2.091 2.757h-.517c.058-1.745.166-4.742.166-6.427V4.827H26.4v14.541h1.696l3.393-4.1H32zM2.042 10.383c0 2.908-.38 5.787-2.042 6.397v3.112c3.881-.406 5.09-3.838 5.09-8.958V7.395h2.07v11.981h3.157V4.826H2.042v5.557zm44.565-1.68c1.15 0 3.02 1.075 3.02 3.403 0 2.328-1.87 3.395-3.02 3.395V8.703zm0 9.336c3.45 0 6.211-2.444 6.211-5.933 0-3.49-2.76-5.933-6.21-5.933V4.188h-3.074v1.977c-3.45 0-6.211 2.443-6.211 5.932 0 3.49 2.76 5.933 6.21 5.933v1.745h3.074v-1.736zm11.3-9.306c-.582-1.17-1.438-2.741-2.078-3.906h-1.38v3.985l1.81 3.025-2.061 3.52v4.013h1.38l2.327-4.42h.603l2.326 4.42h1.38v-4.014l-2.065-3.519 1.812-3.025V4.827h-1.38c-.633 1.163-1.495 2.734-2.07 3.897l-.605.009zm14.206-3.906h-4.918L63.34 19.368h3.22l.634-2.561h4.918l.633 2.56h3.22l-3.853-14.54zm-.693 9.307h-3.536l1.467-6.136h.575l1.494 6.136zM20.816 4.827H15.9l-3.854 14.541h3.22l.634-2.561h4.916l.633 2.56h3.22l-3.853-14.54zm-.69 9.307H16.59l1.467-6.136h.575l1.496 6.136z"/>
</svg>