<svg xmlns="http://www.w3.org/2000/svg" width="87" height="16" viewBox="0 0 87 16">
    <path fill="#FFF" fill-rule="nonzero" d="M82.226 3.723c-1.285 0-2.938.186-3.145.186v11.585h2.548V11.54c.372.062.748.093 1.124.093 2.341 0 4.132-1.558 4.132-3.931 0-2.699-1.974-3.979-4.66-3.979zm.229 5.747a2.28 2.28 0 0 1-.826-.135V6.05c.132-.022.574-.022.826-.022 1.125 0 1.882.558 1.882 1.72 0 1.118-.78 1.722-1.882 1.722zm-8.673 1.959h2.456v-2.24h-2.456V6.186h2.984V3.862h-5.487v11.632h5.668v-2.326h-3.165v-1.74zM64.51 9.562v-5.7h-2.501v11.632h2.501V11.73h.459l2.937 3.764h1.061v-2.698c-.505-.698-1.17-1.583-1.63-2.233.3-.882.707-2.164.963-3.048l1.079-3.653h-2.621L65.06 9.56l-.55.001zm-29.763 2.839c-.918 0-2.41-.86-2.41-2.723 0-1.862 1.49-2.721 2.41-2.721V12.4zM25.84 0l-3.074 1.79v.978h3.993V0h-.919zm-.298 12.215v3.28h2.52V3.863h-2.52v4.705l-1.67 2.205h-.413c.047-1.395.133-3.793.133-5.141V3.86h-2.52v11.633h1.354l2.709-3.28.407.001zM1.63 8.307c0 2.326-.304 4.629-1.63 5.117v2.49c3.098-.325 4.062-3.071 4.062-7.166V5.916h1.653v9.585h2.52V3.861H1.63v4.446zM37.2 6.962c.918 0 2.41.86 2.41 2.723 0 1.862-1.492 2.716-2.41 2.716V6.962zm0 7.469c2.754 0 4.958-1.955 4.958-4.746 0-2.792-2.203-4.747-4.958-4.747V3.351h-2.453v1.58c-2.753 0-4.957 1.956-4.957 4.747s2.202 4.746 4.957 4.746v1.396H37.2v-1.39zm9.019-7.445a97.237 97.237 0 0 0-1.658-3.124h-1.102v3.187l1.445 2.42-1.645 2.816v3.21h1.102l1.856-3.535h.482l1.857 3.536h1.102v-3.211L48.009 9.47l1.446-2.42V3.861h-1.101c-.505.93-1.194 2.187-1.653 3.117l-.482.007zm11.339-3.124h-3.926l-3.075 11.632h2.57l.505-2.049h3.926l.505 2.048h2.57L57.558 3.862zm-.553 7.446h-2.822l1.17-4.91h.46l1.192 4.91zm-40.39-7.446H12.69L9.615 15.494h2.57l.506-2.049h3.924l.505 2.048h2.57L16.615 3.862zm-.55 7.446H13.24l1.171-4.91h.459l1.193 4.91z"/>
</svg>