<svg xmlns="http://www.w3.org/2000/svg" xmlns:xlink="http://www.w3.org/1999/xlink" width="113" height="17" viewBox="0 0 113 17">
    <defs>
        <path id="a" d="M.238.249h4.293V4.63H.238z"/>
    </defs>
    <g fill="none" fill-rule="evenodd">
        <path fill="#00BBD2" d="M.683 4.992c0-.925.254-1.786.834-2.506C2.942.714 5.737.43 7.814.728c1.479.213 3.066.766 4.243 1.727l.039.031-1.432 2.38-.049-.034c-.736-.518-1.889-.908-2.755-1.11-1.168-.272-3.797-.63-3.797 1.27 0 2.781 8.297 1.386 8.297 6.754 0 1.656-.866 3.034-2.226 3.896C7.152 17.535 2.653 16.885.037 14.6L0 14.566l1.612-2.443.048.043c.736.658 1.82 1.117 2.759 1.365 1.183.314 3.203.535 4.122-.505.316-.358.439-.805.439-1.28C8.98 9.303.683 10.58.683 4.992M31.253 13.317l-1.131 2.938h-3.394l6.184-15.236h3.825l6.184 15.236h-3.394l-1.13-2.938h-7.144zm3.572-8.799l-2.407 5.935h4.813l-2.406-5.935zM53.375 10.424l3.988 5.83H53.68l-3.522-5.088h-3.144v5.088H43.85V1.02h6.052c2.181 0 4.586.668 5.678 2.781.361.7.525 1.475.525 2.265 0 1.333-.444 2.51-1.399 3.424a4.675 4.675 0 0 1-1.331.935zM47.014 3.77v4.59h2.888c.788 0 1.597-.208 2.197-.755.447-.407.737-.922.737-1.54 0-.362-.073-.717-.235-1.039-.509-1.01-1.669-1.256-2.7-1.256h-2.887zM61.737 13.39h7.404v2.865H58.573V1.02h3.164z"/>
        <path fill="#00BBD2" d="M73.49 3.94v3.12h3.897v2.977H73.49v3.354h7.848v2.863H70.325v-6.217h-3.714V7.06h3.714V1.02h10.801v2.922z"/>
        <g transform="translate(108.428 .084)">
            <mask id="b" fill="#fff">
                <use xlink:href="#a"/>
            </mask>
            <path fill="#00BBD2" d="M3.902.89a2.119 2.119 0 0 0-3.035 0 2.207 2.207 0 0 0-.629 1.55c0 .605.24 1.152.629 1.549a2.118 2.118 0 0 0 3.035 0c.388-.397.629-.944.629-1.55 0-.604-.24-1.152-.629-1.548m-.316 2.776a1.676 1.676 0 0 1-2.404 0A1.746 1.746 0 0 1 .684 2.44c0-.48.19-.913.498-1.227a1.676 1.676 0 0 1 2.404 0c.308.314.499.748.499 1.227 0 .479-.19.913-.499 1.227" mask="url(#b)"/>
        </g>
        <path fill="#00BBD2" d="M111.557 2.631a.705.705 0 0 0 .215-.526.754.754 0 0 0-.08-.35c-.169-.324-.539-.427-.875-.427h-.93v2.345h.486v-.784h.484l.542.784h.567l-.614-.897a.73.73 0 0 0 .205-.144m-.401-.29a.498.498 0 0 1-.339.116h-.444V1.75h.444c.16 0 .338.039.416.194.025.05.036.104.036.16a.319.319 0 0 1-.113.237M89.712 3.998v12.257h-3.164V3.998h-4.706V1.02h12.576v2.978zM102.992 3.998v12.257h-3.164V3.998H95.12V1.02h12.577v2.978zM21.517 13.812c1.342 0 2.486-.472 3.59-1.223l.011-.007 1.503 2.302-.09.071c-1.427 1.15-3.418 1.743-5.224 1.743-4.677 0-8.212-3.185-8.212-8.06 0-4.876 3.535-8.061 8.212-8.061 1.774 0 3.647.52 5.095 1.587l.01.008-1.388 2.416-.012-.007c-1.046-.641-2.262-1.118-3.495-1.118-3.05 0-5.125 2.042-5.125 5.175 0 3.132 2.074 5.174 5.125 5.174"/>
    </g>
</svg>