<svg xmlns="http://www.w3.org/2000/svg" xmlns:xlink="http://www.w3.org/1999/xlink" width="91" height="14" viewBox="0 0 91 14">
    <defs>
        <path id="a" d="M.19.205h3.427v3.608H.19z"/>
    </defs>
    <g fill="none" fill-rule="evenodd">
        <path fill="#FFF" d="M.545 4.111c0-.762.203-1.47.666-2.064C2.349.588 4.58.355 6.237.6c1.18.175 2.448.63 3.388 1.422l.03.025-1.143 1.96-.038-.028c-.588-.426-1.508-.748-2.2-.914-.932-.224-3.03-.518-3.03 1.046 0 2.29 6.622 1.141 6.622 5.562 0 1.364-.691 2.498-1.777 3.209-2.38 1.558-5.972 1.023-8.06-.86L0 11.995l1.287-2.01.038.034c.588.542 1.453.92 2.202 1.125.945.258 2.557.44 3.29-.417.253-.295.35-.663.35-1.054 0-2.012-6.622-.96-6.622-5.562M24.947 10.967l-.902 2.42h-2.71L26.273.84h3.053l4.936 12.546h-2.709l-.903-2.419h-5.702zM27.8 3.721l-1.921 4.887h3.841L27.8 3.721zM42.606 8.585l3.183 4.801h-2.94l-2.81-4.19h-2.51v4.19h-2.526V.84h4.83c1.742 0 3.662.55 4.533 2.29.289.577.42 1.215.42 1.865 0 1.098-.355 2.067-1.117 2.82-.31.326-.67.574-1.063.77zm-5.078-5.48v3.78h2.306c.629 0 1.275-.172 1.753-.622.358-.335.59-.76.59-1.268 0-.298-.059-.59-.188-.856-.407-.831-1.333-1.034-2.155-1.034h-2.306zM49.281 11.028h5.91v2.358h-8.436V.84h2.526z"/>
        <path fill="#FFF" d="M58.662 3.245v2.569h3.112v2.452h-3.112v2.762h6.265v2.358h-8.79v-5.12h-2.965V5.814h2.965V.84h8.622v2.405z"/>
        <g transform="translate(86.552 .07)">
            <mask id="b" fill="#fff">
                <use xlink:href="#a"/>
            </mask>
            <path fill="#FFF" d="M3.115.734A1.667 1.667 0 0 0 1.904.205c-.474 0-.902.202-1.212.529C.382 1.06.19 1.51.19 2.009c0 .498.192.95.502 1.276.31.326.738.528 1.212.528.472 0 .901-.202 1.21-.528.31-.327.503-.778.503-1.276s-.192-.95-.502-1.275M2.863 3.02a1.318 1.318 0 0 1-.96.418c-.375 0-.714-.16-.96-.418a1.462 1.462 0 0 1-.397-1.01c0-.395.152-.753.398-1.011.245-.259.584-.419.96-.419.374 0 .714.16.959.419.246.258.397.616.397 1.01 0 .395-.151.752-.397 1.01" mask="url(#b)"/>
        </g>
        <path fill="#FFF" d="M89.05 2.167a.59.59 0 0 0 .172-.434c0-.1-.02-.198-.065-.287-.134-.268-.43-.352-.698-.352h-.743v1.93h.389V2.38h.386l.433.645h.452l-.49-.739a.583.583 0 0 0 .164-.119m-.32-.238a.39.39 0 0 1-.27.095h-.355v-.582h.354c.127 0 .27.032.332.16.02.04.029.086.029.131a.266.266 0 0 1-.09.196M71.612 3.292v10.094h-2.526V3.292H65.33V.84h10.039v2.452zM82.213 3.292v10.094h-2.526V3.292H75.93V.84h10.04v2.452zM17.176 11.374c1.071 0 1.985-.388 2.866-1.006l.009-.007 1.199 1.896-.071.059c-1.14.947-2.73 1.435-4.17 1.435-3.734 0-6.556-2.623-6.556-6.638S13.275.475 17.008.475c1.417 0 2.912.429 4.067 1.307l.009.007-1.108 1.99-.01-.007c-.835-.527-1.806-.92-2.79-.92-2.436 0-4.091 1.681-4.091 4.261s1.655 4.261 4.091 4.261"/>
    </g>
</svg>
