<svg xmlns="http://www.w3.org/2000/svg" xmlns:xlink="http://www.w3.org/1999/xlink" width="18" height="14" viewBox="0 0 18 14">
    <defs>
        <path id="a" d="M0 0h17.808v13.107H0z"/>
    </defs>
    <g fill="none" fill-rule="evenodd">
        <mask id="b" fill="#fff">
            <use xlink:href="#a"/>
        </mask>
        <path fill="#FFF" d="M17.808 1.555a8.329 8.329 0 0 1-2.095.524c.762-.417 1.341-1.057 1.613-1.84a7.848 7.848 0 0 1-2.328.81C14.341.4 13.385 0 12.323 0c-2.009 0-3.65 1.484-3.65 3.305 0 .267.048.516.105.756C5.737 3.928 3.042 2.612 1.245.604.936 1.102.743 1.662.743 2.266c0 1.155.657 2.168 1.622 2.755a3.775 3.775 0 0 1-1.65-.41v.045c0 .427.087.818.25 1.19.445 1.041 1.459 1.823 2.686 2.045-.32.08-.629.124-.966.124-.232 0-.464-.026-.687-.07.474 1.314 1.817 2.274 3.41 2.31-1.256.888-2.82 1.413-4.53 1.413-.3 0-.579-.018-.878-.045A11.227 11.227 0 0 0 5.6 13.107c5.708 0 9.233-3.634 10.15-7.411a8.397 8.397 0 0 0 .241-2V3.27a7.26 7.26 0 0 0 1.816-1.715" mask="url(#b)"/>
    </g>
</svg>