<svg xmlns="http://www.w3.org/2000/svg" xmlns:xlink="http://www.w3.org/1999/xlink" width="21" height="11" viewBox="0 0 21 11">
    <defs>
        <path id="a" d="M0 0h20.706v10.938H0z"/>
    </defs>
    <g fill="none" fill-rule="evenodd">
        <mask id="b" fill="#fff">
            <use xlink:href="#a"/>
        </mask>
        <path fill="#FFF" d="M20.554.833C20.28.65 19.288.65 18.308.65c-1.001.019-2.002.019-2.237.102-.214.073-.694 1.123-1.317 2.2-.715 1.217-1.583 2.396-2.135 2.376-.724 0-.55-1.998-.5-3.48.01-.968-.163-1.281-.316-1.363-.378-.24-1.42-.47-1.42-.47S7.258-.198 6.82 1.018c.603.074 1.624-.093 1.226 3.674-.03.185-.48 1.732-1.93-.36C5.746 3.809 4.357.669 3.867.65 2.264.621.672.557.12.833c-.522.277.694 2.432 2.747 5.324 1.663 2.376 3.43 4.218 6.494 4.678.582.056 2.073.11 2.554-.091.315-.139-.083-2.183 1.01-2.386.48-.083 2.348 2.137 3.053 2.386.43.156 1.37.22 2.329.183 1.042-.027 2.225.093 2.338-.552.256-1.409-3.155-3.251-3.247-4.117-.082-.626 1.246-1.777 1.92-2.661.837-1.069 1.756-2.358 1.235-2.764" mask="url(#b)"/>
    </g>
</svg>